<?xml version="1.0" encoding="utf-8"?>
<!-- Generator: Adobe Illustrator 23.0.1, SVG Export Plug-In . SVG Version: 6.00 Build 0)  -->
<svg version="1.1" id="Capa_1" xmlns="http://www.w3.org/2000/svg" xmlns:xlink="http://www.w3.org/1999/xlink" x="0px" y="0px"
	 viewBox="0 0 100 100" style="enable-background:new 0 0 100 100;" xml:space="preserve">
<style type="text/css">
	.st0{fill:#9D61FF;}
	.st1{fill:#9D61FF;fill-opacity:0.5;}
	.st2{fill:#9D61FF;fill-opacity:0.25;}
</style>
<path class="st0" d="M5,0h90c2.8,0,5,2.2,5,5v19c0,2.8-2.2,5-5,5H5c-2.8,0-5-2.2-5-5V5C0,2.2,2.2,0,5,0z"/>
<path class="st1" d="M5,35h90c2.8,0,5,2.2,5,5v19c0,2.8-2.2,5-5,5H5c-2.8,0-5-2.2-5-5V40C0,37.2,2.2,35,5,35z"/>
<path class="st2" d="M5,70h90c2.8,0,5,2.2,5,5v19c0,2.8-2.2,5-5,5H5c-2.8,0-5-2.2-5-5V75C0,72.2,2.2,70,5,70z"/>
</svg>
