<svg width="100" height="100" viewBox="0 0 100 100" fill="none" xmlns="http://www.w3.org/2000/svg">
<rect width="100" height="100" rx="50" fill="#9D61FF" fill-opacity="0.25"/>
<path d="M61.9999 54.98C60.5199 54.98 59.0999 55.32 57.7399 56C56.3799 56.64 55.2399 57.54 54.3199 58.7L41.5399 52.82C42.1399 50.94 42.1399 49.06 41.5399 47.18L54.3199 41.3C55.3599 42.54 56.5999 43.48 58.0399 44.12C59.4799 44.72 60.9799 44.98 62.5399 44.9C64.1399 44.78 65.6399 44.32 67.0399 43.52C68.4399 42.72 69.5599 41.66 70.3999 40.34C71.2399 39.02 71.7399 37.58 71.8999 36.02C72.0999 34.42 71.9199 32.88 71.3599 31.4C70.8399 29.88 69.9799 28.58 68.7799 27.5C67.6199 26.42 66.2799 25.66 64.7599 25.22C63.2799 24.78 61.7399 24.72 60.1399 25.04C58.5799 25.32 57.1599 25.94 55.8799 26.9C54.6399 27.86 53.6599 29.06 52.9399 30.5C52.2599 31.9 51.9399 33.4 51.9799 35C51.9799 35.6 52.0399 36.2 52.1599 36.8L38.9599 42.86C37.6799 41.58 36.1799 40.72 34.4599 40.28C32.7399 39.84 31.0199 39.86 29.2999 40.34C27.5799 40.78 26.0799 41.64 24.7999 42.92C23.5599 44.2 22.6999 45.7 22.2199 47.42C21.7799 49.14 21.7799 50.86 22.2199 52.58C22.6999 54.3 23.5599 55.8 24.7999 57.08C26.0799 58.36 27.5799 59.24 29.2999 59.72C31.0199 60.16 32.7399 60.16 34.4599 59.72C36.1799 59.28 37.6799 58.42 38.9599 57.14L52.1599 63.2C52.0399 63.8 51.9799 64.4 51.9799 65C51.9799 66.8 52.4199 68.48 53.2999 70.04C54.2199 71.56 55.4399 72.76 56.9599 73.64C58.5199 74.56 60.1999 75.02 61.9999 75.02C63.7999 75.02 65.4599 74.56 66.9799 73.64C68.5399 72.76 69.7599 71.56 70.6399 70.04C71.5599 68.48 72.0199 66.8 72.0199 65C72.0199 63.2 71.5599 61.54 70.6399 60.02C69.7599 58.46 68.5399 57.24 66.9799 56.36C65.4599 55.44 63.7999 54.98 61.9999 54.98ZM61.9999 30.02C63.3599 30.02 64.5199 30.52 65.4799 31.52C66.4799 32.48 66.9799 33.64 66.9799 35C66.9799 36.36 66.4799 37.54 65.4799 38.54C64.5199 39.5 63.3599 39.98 61.9999 39.98C60.6399 39.98 59.4599 39.5 58.4599 38.54C57.4999 37.54 57.0199 36.36 57.0199 35C57.0199 33.64 57.4999 32.48 58.4599 31.52C59.4599 30.52 60.6399 30.02 61.9999 30.02ZM31.9999 54.98C30.6399 54.98 29.4599 54.5 28.4599 53.54C27.4999 52.54 27.0199 51.36 27.0199 50C27.0199 48.64 27.4999 47.48 28.4599 46.52C29.4599 45.52 30.6399 45.02 31.9999 45.02C33.3599 45.02 34.5199 45.52 35.4799 46.52C36.4799 47.48 36.9799 48.64 36.9799 50C36.9799 51.36 36.4799 52.54 35.4799 53.54C34.5199 54.5 33.3599 54.98 31.9999 54.98ZM61.9999 69.98C60.6399 69.98 59.4599 69.5 58.4599 68.54C57.4999 67.54 57.0199 66.36 57.0199 65C57.0199 63.64 57.4999 62.48 58.4599 61.52C59.4599 60.52 60.6399 60.02 61.9999 60.02C63.3599 60.02 64.5199 60.52 65.4799 61.52C66.4799 62.48 66.9799 63.64 66.9799 65C66.9799 66.36 66.4799 67.54 65.4799 68.54C64.5199 69.5 63.3599 69.98 61.9999 69.98Z" fill="#9D61FF"/>
</svg>
