<?xml version="1.0" encoding="utf-8"?>
<!-- Generator: Adobe Illustrator 25.1.0, SVG Export Plug-In . SVG Version: 6.00 Build 0)  -->
<svg version="1.1" id="Layer_1" xmlns="http://www.w3.org/2000/svg" xmlns:xlink="http://www.w3.org/1999/xlink" x="0px" y="0px"
	 viewBox="0 0 161.97 157.97" style="enable-background:new 0 0 161.97 157.97;" xml:space="preserve">
<style type="text/css">
	.st0{fill-rule:evenodd;clip-rule:evenodd;fill:#181616;}
</style>
<path class="st0" d="M80.98,0C36.26,0,0,36.26,0,80.99c0,35.78,23.2,66.13,55.39,76.84c4.05,0.74,5.53-1.76,5.53-3.9
	c0-1.92-0.07-7.02-0.11-13.77c-22.53,4.89-27.28-10.86-27.28-10.86c-3.68-9.36-8.99-11.85-8.99-11.85
	c-7.35-5.02,0.56-4.92,0.56-4.92c8.13,0.57,12.4,8.35,12.4,8.35c7.22,12.38,18.95,8.8,23.57,6.73c0.74-5.23,2.83-8.8,5.14-10.83
	c-17.98-2.04-36.89-8.99-36.89-40.03c0-8.84,3.16-16.07,8.34-21.73c-0.83-2.05-3.61-10.28,0.79-21.43c0,0,6.8-2.18,22.27,8.3
	c6.46-1.8,13.39-2.69,20.27-2.73c6.88,0.03,13.81,0.93,20.27,2.73c15.46-10.48,22.25-8.3,22.25-8.3
	c4.42,11.15,1.64,19.38,0.81,21.43c5.19,5.66,8.32,12.89,8.32,21.73c0,31.11-18.94,37.96-36.98,39.96c2.91,2.5,5.5,7.44,5.5,15
	c0,10.83-0.1,19.56-0.1,22.22c0,2.17,1.46,4.69,5.57,3.89c32.15-10.73,55.34-41.06,55.34-76.83C161.97,36.26,125.71,0,80.98,0z"/>
</svg>
